Coordinates
version=1
nRows=8
nColumns=36
inDegrees=yes

Units are S.I. units (second, meters, Newtons, ...)
If the header above contains a line with 'inDegrees', this indicates whether rotational values are in degrees (yes) or radians (no).

endheader
time	pelvis_tilt	pelvis_list	pelvis_rotation	pelvis_tx	pelvis_ty	pelvis_tz	hip_flexion_r	hip_adduction_r	hip_rotation_r	knee_angle_r	knee_angle_r_beta	ankle_angle_r	subtalar_angle_r	mtp_angle_r	hip_flexion_l	hip_adduction_l	hip_rotation_l	knee_angle_l	knee_angle_l_beta	ankle_angle_l	subtalar_angle_l	mtp_angle_l	lumbar_extension	lumbar_bending	lumbar_rotation	arm_flex_r	arm_add_r	arm_rot_r	elbow_flex_r	pro_sup_r	arm_flex_l	arm_add_l	arm_rot_l	elbow_flex_l	pro_sup_l
      3.43333330	    -17.42718355	      1.40104308	      0.23148473	     -0.09036481	      1.20118426	      0.06161867	     23.81325360	     -2.83993048	     -7.55711056	     18.49499347	      0.32279853	     21.07859736	      1.40652835	     -7.49999987	     23.37889744	     -2.72836061	    -13.36567650	     19.05989001	      0.33265784	     21.71046998	      6.23142870	     -7.49999987	     -3.38711275	      0.40541965	     -2.15439100	    -73.47528344	     10.39035147	    -72.24202564	     69.55394432	     78.04192785	    -63.64035010	      6.05526781	    -70.20700786	    133.91471735	     81.13720380
      3.45000000	    -18.98091395	      1.13839741	      0.20155499	     -0.08737385	      1.19227088	      0.06212819	     26.80198848	     -2.64169566	     -6.81351729	     21.54021535	      0.37594768	     22.63763507	      0.30621163	     -7.49999987	     27.08813656	     -3.35439129	    -11.86628121	     23.58515799	      0.41163866	     24.03546252	      5.15748293	     -7.49999987	     -2.58992694	      0.50565804	     -0.80134152	    -71.25470418	     11.32686155	    -73.66584865	     67.01055893	     79.50590390	    -62.70891818	      7.27213952	    -68.54123542	    129.53822071	     85.06821927
      3.46666670	    -20.16966872	      0.83501491	      0.10322547	     -0.08240779	      1.18642739	      0.06055183	     29.57092339	     -2.42964789	     -6.01486709	     25.23315197	      0.44040158	     24.51075203	     -0.77989037	     -7.49999987	     30.56670606	     -3.97447453	    -10.17789736	     28.68192608	      0.50059405	     26.53897551	      3.94463764	     -7.49999987	     -2.12891718	      0.79582106	     -0.94569323	    -68.19816735	      9.96631165	    -73.83845714	     63.78085304	     79.56488569	    -61.15950211	     10.08345270	    -66.98502695	    124.51038412	     85.43409234
      3.48333330	    -21.20654495	      0.60803863	      0.09059156	     -0.07876991	      1.17651219	      0.06076391	     32.52767792	     -2.15792922	     -4.60845662	     29.52718324	      0.51534657	     26.53936054	     -2.54705376	     -7.49999987	     33.95787533	     -4.45858832	     -8.59354830	     34.36404450	      0.59976572	     28.77779888	      2.00917320	     -7.49999987	     -1.26240117	      0.74232316	      0.48576068	    -65.43350610	      9.29794032	    -71.96361667	     58.57053169	     80.83459957	    -58.80803653	     10.47641433	    -63.72570602	    116.66135450	     88.89073712
      3.50000000	    -21.75401761	      0.29363353	      0.06339180	     -0.07536926	      1.16790283	      0.05981019	     35.07119887	     -1.74035886	     -3.25506497	     34.03124920	      0.59395735	     28.69342549	     -4.22041346	     -7.49999987	     36.97007243	     -4.90572543	     -7.11583341	     40.12559845	      0.70032381	     31.03382186	      0.44310918	     -7.49999987	     -0.73349468	      1.14213565	      1.00661163	    -62.11870698	      7.41732540	    -69.10136866	     53.84085567	     80.72521466	    -56.00890596	     10.91662617	    -60.60690787	    104.93830858	     88.40741650
      3.51666670	    -22.17708780	     -0.01747054	     -0.00203969	     -0.07256360	      1.15470816	      0.05977894	     37.63800954	     -1.16512444	     -1.68486830	     38.88353725	      0.67864575	     31.12336560	     -5.79826252	     -7.49999987	     39.86060043	     -5.31957387	     -5.88097680	     45.85277658	      0.80028192	     33.21157281	     -0.98357484	     -7.49999987	     -1.01564153	      1.62871357	     -0.21391781	    -57.45391349	      4.38381085	    -66.38754550	     48.94157401	     79.62846089	    -51.97569687	     12.38972971	    -59.98235287	     91.12761276	     86.26903318
      3.53333330	    -22.12792611	     -0.40929071	      0.01634346	     -0.06857083	      1.14473016	      0.05902904	     39.73164432	     -0.50942582	     -0.42584480	     43.94553944	      0.76699435	     33.44941009	     -7.37904107	     -7.49999987	     42.32258964	     -5.66975455	     -4.74221120	     51.48744678	      0.89862547	     35.45020062	     -1.92332900	     -7.49999987	     -1.78767750	      1.81994935	     -1.46760911	    -51.90977055	     -0.21652563	    -58.87650143	     40.29372781	     79.02090367	    -46.51765264	     12.32439908	    -59.45082493	     73.67741190	     83.40410476
      3.55000000	    -21.72123649	     -0.90780219	      0.09630766	     -0.06189008	      1.13479941	      0.05765972	     41.08983378	      0.26132635	      0.62422002	     48.40075369	      0.84475251	     35.86260017	     -8.26531820	     -7.49999987	     44.30979452	     -6.06876249	     -3.72390425	     56.79046370	      0.99118058	     37.28663645	     -2.92846726	     -7.49999987	     -2.05169817	      2.75886786	     -2.68501604	    -43.59701633	     -3.89289750	    -52.85329053	     31.24878402	     80.44374123	    -39.03092764	     10.05468939	    -58.37328136	     52.51320115	     83.33660084
